<svg width="0" height="0" class="hidden">
    <symbol fill="none" xmlns="http://www.w3.org/2000/svg" viewBox="0 0 35 27" id="phone">
        <path d="M31.1639 11.5237C29.394 11.5237 26.1858 10.8861 25.1861 9.88644C24.5724 9.27268 24.4278 8.50421 24.3105 7.88535C24.166 7.12368 24.0793 6.89755 23.7461 6.75304C22.2125 6.09338 20.0125 5.71594 17.7088 5.71594C15.4306 5.71594 13.2544 6.08828 11.7378 6.73604C11.408 6.87715 11.323 7.10327 11.1819 7.86325C11.0663 8.4838 10.9235 9.25568 10.3114 9.86774C9.75375 10.4254 8.58574 10.8096 7.70505 11.0323C6.56935 11.3197 5.35203 11.4863 4.36764 11.4863C3.23873 11.4863 2.47536 11.2721 2.03502 10.83C1.37025 10.1653 0.945212 9.25568 0.870405 8.33589C0.807499 7.56062 0.957113 6.41131 2.02651 5.34021C3.76408 3.60264 6.1001 2.24761 8.97337 1.31422C11.6154 0.453943 14.6213 0 17.668 0C20.7351 0 23.7665 0.459044 26.434 1.32953C29.3328 2.27482 31.6926 3.64345 33.4455 5.39801C35.2307 7.18318 34.7886 9.55151 33.4659 10.8742C33.0289 11.3112 32.2758 11.5237 31.1639 11.5237ZM17.7088 4.01578C20.2709 4.01578 22.6529 4.43402 24.4176 5.19059C25.6299 5.71084 25.8339 6.78534 25.9818 7.56742C26.0702 8.03496 26.1467 8.4396 26.3898 8.68272C26.8183 9.11116 29.2903 9.82353 31.1656 9.82353C31.9834 9.82353 32.2418 9.68412 32.2741 9.66372C32.8011 9.12987 33.4608 7.81734 32.2452 6.60003C29.1764 3.53123 23.7274 1.70016 17.668 1.70016C11.6579 1.70016 6.26162 3.51083 3.22853 6.54222C2.73888 7.03187 2.51446 7.58952 2.56377 8.19818C2.60627 8.71163 2.85279 9.24208 3.22683 9.61951C3.25913 9.63991 3.52096 9.78613 4.36594 9.78613C6.23271 9.78613 8.68605 9.08736 9.10769 8.66572C9.34741 8.426 9.42222 8.02136 9.50892 7.55382C9.65514 6.76834 9.85406 5.69214 11.068 5.17359C12.8123 4.42722 15.1705 4.01748 17.7071 4.01748L17.7088 4.01578Z" fill="black"></path>
        <path d="M28.7939 27.0001H6.69179C5.55098 27.0001 4.49858 26.5513 3.7284 25.7369C2.95823 24.9226 2.56889 23.8463 2.6318 22.7072C2.6386 22.5763 2.83242 19.4752 4.79101 16.3503C5.95052 14.5006 7.48746 13.0265 9.35764 11.969C11.6716 10.6616 14.4921 9.99854 17.7428 9.99854C20.9935 9.99854 23.8141 10.6616 26.128 11.969C27.9999 13.0265 29.5369 14.5006 30.6947 16.3503C32.6532 19.4769 32.8471 22.578 32.8539 22.7072C32.9168 23.8463 32.5274 24.9226 31.7573 25.7369C30.9871 26.5513 29.9347 27.0001 28.7939 27.0001ZM17.7428 11.6987C12.4434 11.6987 8.58236 13.5485 6.26845 17.1953C4.51728 19.9547 4.33196 22.7752 4.33026 22.8041C4.29286 23.4706 4.51898 24.098 4.96442 24.5689C5.40986 25.0399 6.02362 25.3 6.69349 25.3H28.7956C29.4637 25.3 30.0775 25.0399 30.5246 24.5689C30.9718 24.098 31.1962 23.4706 31.1588 22.8024C31.1571 22.7752 30.9701 19.9547 29.2206 17.1953C26.905 13.5485 23.0439 11.6987 17.7462 11.6987H17.7428Z" fill="black"></path>
        <path d="M17.7428 23.5994C14.9308 23.5994 12.6423 21.311 12.6423 18.4989C12.6423 15.6869 14.9308 13.3984 17.7428 13.3984C20.5549 13.3984 22.8433 15.6869 22.8433 18.4989C22.8433 21.311 20.5549 23.5994 17.7428 23.5994ZM17.7428 15.0986C15.8675 15.0986 14.3425 16.6236 14.3425 18.4989C14.3425 20.3742 15.8675 21.8992 17.7428 21.8992C19.6181 21.8992 21.1431 20.3742 21.1431 18.4989C21.1431 16.6236 19.6181 15.0986 17.7428 15.0986Z" fill="black"></path>
  </symbol>
    <symbol viewBox="0 0 28 26" fill="none" xmlns="http://www.w3.org/2000/svg" id="tree">
        <path fill-rule="evenodd" clip-rule="evenodd" d="M13.8538 8.60565C13.8538 13.0354 11.16 16.6835 7.69655 17.1589V23.6655H20.011V17.2443H16.3729C15.8055 17.2445 15.2547 17.0663 14.8096 16.7384C14.3646 16.4106 14.0513 15.9524 13.9205 15.438C13.7898 14.9236 13.8493 14.3831 14.0893 13.9041C14.3293 13.4251 14.7358 13.0356 15.243 12.7987C15.019 12.0962 15.0852 11.3411 15.4286 10.6818C15.772 10.0224 16.3678 9.50672 17.0986 9.23601C16.9713 8.72009 16.9704 8.18405 17.0961 7.66777C17.2218 7.15149 17.4708 6.66828 17.8247 6.25409C18.1785 5.8399 18.6281 5.50541 19.1399 5.2755C19.6517 5.0456 20.2125 4.9262 20.7807 4.9262C21.3488 4.9262 21.9097 5.0456 22.4215 5.2755C22.9333 5.50541 23.3828 5.8399 23.7367 6.25409C24.0905 6.66828 24.3396 7.15149 24.4653 7.66777C24.591 8.18405 24.5901 8.72009 24.4627 9.23601C25.1936 9.50672 25.7893 10.0224 26.1327 10.6818C26.4761 11.3411 26.5423 12.0962 26.3183 12.7987C26.8255 13.0356 27.2321 13.4251 27.4721 13.9041C27.7121 14.3831 27.7716 14.9236 27.6408 15.438C27.5101 15.9524 27.1968 16.4106 26.7517 16.7384C26.3067 17.0663 25.7558 17.2445 25.1885 17.2443H21.5503V23.6655H26.5531C26.8593 23.6655 27.1529 23.7789 27.3694 23.9806C27.5859 24.1823 27.7076 24.4559 27.7076 24.7412C27.7076 25.0265 27.5859 25.3001 27.3694 25.5019C27.1529 25.7036 26.8593 25.8169 26.5531 25.8169H1.15448C0.848294 25.8169 0.554647 25.7036 0.33814 25.5019C0.121632 25.3001 0 25.0265 0 24.7412C0 24.4559 0.121632 24.1823 0.33814 23.9806C0.554647 23.7789 0.848294 23.6655 1.15448 23.6655H6.15724V17.1589C2.69379 16.6835 0 13.0354 0 8.60565C0 3.85318 3.10171 0 6.92689 0C10.7521 0 13.8538 3.85318 13.8538 8.60565Z" fill="#121214"/>
    </symbol>
    <symbol viewBox="0 0 13 10" fill="none" xmlns="http://www.w3.org/2000/svg" id="arrow">
        <path fill-rule="evenodd" clip-rule="evenodd" d="M0.222198 4.9999C0.222198 4.86729 0.269024 4.74011 0.352373 4.64635C0.435723 4.55258 0.548769 4.4999 0.666643 4.4999H11.1493L8.35198 1.3539C8.26852 1.26001 8.22164 1.13267 8.22164 0.999899C8.22164 0.867123 8.26852 0.739786 8.35198 0.645899C8.43543 0.552012 8.54862 0.499268 8.66664 0.499268C8.78467 0.499268 8.89785 0.552012 8.98131 0.645899L12.5369 4.6459C12.5783 4.69234 12.6111 4.74752 12.6335 4.80827C12.6559 4.86901 12.6674 4.93413 12.6674 4.9999C12.6674 5.06567 12.6559 5.13079 12.6335 5.19153C12.6111 5.25228 12.5783 5.30745 12.5369 5.3539L8.98131 9.3539C8.89785 9.44779 8.78467 9.50053 8.66664 9.50053C8.54862 9.50053 8.43543 9.44779 8.35198 9.3539C8.26852 9.26001 8.22164 9.13267 8.22164 8.9999C8.22164 8.86712 8.26852 8.73979 8.35198 8.6459L11.1493 5.4999H0.666643C0.548769 5.4999 0.435723 5.44722 0.352373 5.35345C0.269024 5.25968 0.222198 5.13251 0.222198 4.9999Z" fill="#00C2FF"/>
    </symbol>
    <symbol viewBox="0 0 33 26" fill="none" xmlns="http://www.w3.org/2000/svg" id="boat">
<path d="M24.0466 0H23.474C22.329 0 21.7564 1.18182 21.7564 1.18182L20.6114 3.54533L13.1171 3.54545C12.7838 3.54545 12.4735 3.67545 12.2437 3.91182L11.7655 4.40357C11.7497 4.41669 11.7345 4.43075 11.7198 4.44576L5.68846 10.6364H1.19364C0.539433 10.6364 0 11.18 0 11.8654V13.0903C0.145493 14.3717 0.524399 15.5838 1.09418 16.6843C1.29379 16.7389 1.48072 16.8083 1.65768 16.8901C2.08755 17.089 2.42477 17.3491 2.66362 17.5334L2.68841 17.5526C2.94912 17.7535 3.10422 17.868 3.28526 17.9517C3.44462 18.0254 3.65987 18.0897 4.00633 18.0897C4.34893 18.0897 4.56135 18.0259 4.71879 17.9526C4.89833 17.8692 5.05228 17.755 5.31298 17.5535L5.33622 17.5356C5.57505 17.3507 5.91247 17.0897 6.3435 16.8902C6.81012 16.6743 7.34615 16.5454 8.00121 16.5454C8.65633 16.5454 9.19232 16.6743 9.65894 16.8901C10.0888 17.089 10.426 17.3491 10.6649 17.5334L10.6896 17.5526C10.9504 17.7535 11.1054 17.868 11.2864 17.9517C11.4458 18.0254 11.6611 18.0897 12.0076 18.0897C12.354 18.0897 12.5693 18.0254 12.7287 17.9517C12.9097 17.868 13.0647 17.7535 13.3255 17.5526L13.3503 17.5334C13.5891 17.3491 13.9263 17.089 14.3562 16.8901C14.8229 16.6743 15.3588 16.5454 16.0139 16.5454C16.669 16.5454 17.205 16.6743 17.6716 16.8901C18.1015 17.089 18.4387 17.3491 18.6775 17.5334L18.7023 17.5526C18.963 17.7535 19.1181 17.868 19.2991 17.9517C19.4585 18.0254 19.6738 18.0897 20.0203 18.0897C20.3667 18.0897 20.5819 18.0254 20.7413 17.9517C20.9224 17.868 21.0774 17.7535 21.3381 17.5526L21.3629 17.5334C21.6017 17.3491 21.939 17.089 22.3688 16.8901C22.8355 16.6743 23.3714 16.5454 24.0265 16.5454C24.6836 16.5454 25.221 16.6738 25.6888 16.8891C26.1215 17.0883 26.4602 17.3488 26.7005 17.5337L26.7238 17.5515C26.9858 17.753 27.1413 17.8677 27.3229 17.9517C27.4826 18.0254 27.6979 18.0897 28.0444 18.0897C28.3947 18.0897 28.6127 18.0251 28.774 17.9509C28.9565 17.8668 29.1129 17.752 29.3735 17.5515L29.3998 17.5313C29.6387 17.3475 29.9758 17.0881 30.4045 16.8899C30.8711 16.6743 31.4069 16.5454 32.0621 16.5454V16.48C32.0621 15.8648 31.5761 15.3636 30.9797 15.3636H29.772V11.8654C29.772 11.1918 29.244 10.6364 28.5783 10.6364H27.4818V4.81342C27.4818 4.78778 27.4748 4.76899 27.4663 4.7463L27.4605 4.73046L27.4818 4.72727C27.4359 4.07727 26.9072 3.54545 26.2637 3.54545H25.1915L25.1917 1.18182C25.1917 0.590897 24.741 0 24.0466 0ZM8.46374 9.45454L11.9181 5.90909H17.1715C17.8039 5.90909 18.3212 6.44091 18.3212 7.0909V8.2609C18.3212 8.9109 17.8039 9.44272 17.1715 9.45454H8.46374ZM21.7079 5.90909H24.0722C24.6891 5.90909 25.1802 6.42731 25.1802 7.05167V8.31196C25.1802 8.94801 24.6776 9.45454 24.0722 9.45454H21.7079C21.091 9.45454 20.5999 8.93631 20.5999 8.31196V7.05167C20.5999 6.41561 21.1025 5.90909 21.7079 5.90909Z" fill="#212121"/>
<path d="M32.0621 17.7273C31.062 17.7273 30.5611 18.1122 30.0596 18.4977C29.5567 18.8844 29.0531 19.2716 28.0444 19.2716C27.0442 19.2716 26.5434 18.8865 26.0419 18.501C25.539 18.1145 25.0352 17.7273 24.0265 17.7273C23.0249 17.7273 22.5242 18.1134 22.0233 18.4994C21.5226 18.8855 21.0217 19.2716 20.0203 19.2716C19.0187 19.2716 18.5178 18.8855 18.0171 18.4994C17.5162 18.1134 17.0155 17.7273 16.0139 17.7273C15.0123 17.7273 14.5115 18.1134 14.0107 18.4994C13.5099 18.8855 13.0091 19.2716 12.0076 19.2716C11.006 19.2716 10.5051 18.8855 10.0044 18.4994C9.50355 18.1134 9.0028 17.7273 8.00121 17.7273C6.9982 17.7273 6.49741 18.1145 5.99733 18.501C5.4987 18.8865 5.00076 19.2716 4.00633 19.2716C3.00475 19.2716 2.50396 18.8855 2.00317 18.4994C1.50237 18.1134 1.00159 17.7273 0 17.7273V26H32.0507L32.0621 17.7273Z" fill="#212121"/>
</symbol>
<symbol viewBox="0 0 27 23" fill="none" xmlns="http://www.w3.org/2000/svg" id="blanket">
<path d="M20.2117 0H9.35952C9.88351 0.314774 10.3598 0.696099 10.7751 1.13339L10.7776 1.13634C11.0592 1.43203 11.3114 1.75188 11.5308 2.09177L11.5683 2.15052C11.6154 2.22426 11.6615 2.30046 11.7055 2.37715C11.7169 2.39681 11.7272 2.41697 11.7383 2.43663C11.8216 2.58559 11.8993 2.7379 11.9712 2.89358C11.9805 2.91398 11.9909 2.93389 11.9999 2.95454C12.0284 3.01869 12.0543 3.08383 12.0806 3.14896C12.1006 3.19812 12.12 3.24729 12.1386 3.29645C12.161 3.35675 12.1826 3.41738 12.2033 3.47834C12.224 3.53905 12.2429 3.60124 12.2615 3.66171C12.2778 3.71505 12.2946 3.76814 12.3094 3.82197C12.3399 3.93324 12.3674 4.04565 12.3919 4.15921C12.3999 4.19706 12.4061 4.23541 12.4134 4.27351C12.4302 4.35978 12.4457 4.44557 12.4587 4.53406C12.4654 4.57904 12.4711 4.62402 12.4768 4.66925C12.4876 4.75577 12.4963 4.84278 12.5026 4.93029C12.506 4.97085 12.5099 5.01116 12.5125 5.05196C12.5205 5.17929 12.5257 5.3071 12.5257 5.43615V12.5418H26.144V5.63598C26.1421 4.14181 25.5165 2.70933 24.4044 1.65277C23.2923 0.596204 21.7845 0.00182145 20.2117 0Z" fill="black"/>
<path d="M0.00119019 12.542H0.00662362C0.00662362 12.5531 0.00300133 12.5636 0.00300133 12.5749V15.5246C0.00300133 15.6549 0.0575206 15.78 0.154565 15.8722C0.25161 15.9644 0.383231 16.0162 0.520473 16.0162C0.657715 16.0162 0.789336 15.9644 0.886381 15.8722C0.983426 15.78 1.03795 15.6549 1.03795 15.5246V12.5749C1.03795 12.5636 1.03536 12.5531 1.03432 12.542H3.11534C3.11534 12.5531 3.11171 12.5636 3.11171 12.5749V15.5246C3.11171 15.6549 3.16623 15.78 3.26328 15.8722C3.36032 15.9644 3.49194 16.0162 3.62919 16.0162C3.76643 16.0162 3.89805 15.9644 3.99509 15.8722C4.09214 15.78 4.14666 15.6549 4.14666 15.5246V12.5749C4.14666 12.5636 4.14407 12.5531 4.14303 12.542H6.22405C6.22405 12.5531 6.22043 12.5636 6.22043 12.5749V15.5246C6.22043 15.6549 6.27495 15.78 6.37199 15.8722C6.46903 15.9644 6.60066 16.0162 6.7379 16.0162C6.87514 16.0162 7.00676 15.9644 7.10381 15.8722C7.20085 15.78 7.25537 15.6549 7.25537 15.5246V12.5749C7.25537 12.5636 7.25278 12.5531 7.25175 12.542H9.33276C9.33276 12.5531 9.32914 12.5636 9.32914 12.5749V15.5246C9.32914 15.6549 9.38366 15.78 9.4807 15.8722C9.57775 15.9644 9.70937 16.0162 9.84661 16.0162C9.98385 16.0162 10.1155 15.9644 10.2125 15.8722C10.3096 15.78 10.3641 15.6549 10.3641 15.5246V12.5749C10.3641 12.5636 10.3615 12.5531 10.3605 12.542H11.4906V11.1321H0.00119019V12.542Z" fill="black"/>
<path d="M5.79569 0.000732422C4.25678 0.0109057 2.78438 0.598101 1.69894 1.63452C0.613508 2.67094 0.00289641 4.0727 0 5.53471V7.56184H11.4912V5.4359C11.4881 3.99954 10.8878 2.62251 9.82109 1.60457C8.75438 0.586633 7.3076 0.0101931 5.79569 0.000732422Z" fill="black"/>
<path d="M0.00119019 8.54492H11.4914V10.1485H0.00119019V8.54492Z" fill="black"/>
<path d="M12.5262 18.6937H14.4321C14.4253 18.7254 14.4218 18.7577 14.4217 18.7901V21.7397C14.4217 21.8701 14.4762 21.9951 14.5733 22.0873C14.6703 22.1795 14.8019 22.2313 14.9392 22.2313C15.0764 22.2313 15.208 22.1795 15.3051 22.0873C15.4021 21.9951 15.4567 21.8701 15.4567 21.7397V18.7901C15.4565 18.7577 15.4531 18.7254 15.4463 18.6937H17.3625C17.3557 18.7254 17.3523 18.7577 17.3522 18.7901V21.7397C17.3522 21.8701 17.4067 21.9951 17.5037 22.0873C17.6008 22.1795 17.7324 22.2313 17.8696 22.2313C18.0069 22.2313 18.1385 22.1795 18.2355 22.0873C18.3326 21.9951 18.3871 21.8701 18.3871 21.7397V18.7901C18.387 18.7577 18.3835 18.7254 18.3767 18.6937H20.2929C20.2862 18.7254 20.2827 18.7577 20.2826 18.7901V21.7397C20.2826 21.8701 20.3371 21.9951 20.4342 22.0873C20.5312 22.1795 20.6628 22.2313 20.8001 22.2313C20.9373 22.2313 21.0689 22.1795 21.166 22.0873C21.263 21.9951 21.3175 21.8701 21.3175 21.7397V18.7901C21.3174 18.7577 21.314 18.7254 21.3072 18.6937H23.2231C23.2164 18.7254 23.2129 18.7577 23.2128 18.7901V21.7397C23.2128 21.8701 23.2673 21.9951 23.3643 22.0873C23.4614 22.1795 23.593 22.2313 23.7303 22.2313C23.8675 22.2313 23.9991 22.1795 24.0962 22.0873C24.1932 21.9951 24.2477 21.8701 24.2477 21.7397V18.7901C24.2476 18.7577 24.2441 18.7254 24.2374 18.6937H26.1435V16.1111H12.5262V18.6937Z" fill="black"/>
<path d="M12.5262 13.5242H26.1445V15.1278H12.5262V13.5242Z" fill="black"/>
<symbol fill="#000000" version="1.1" id="staff" xmlns="http://www.w3.org/2000/svg" xmlns:xlink="http://www.w3.org/1999/xlink" xml:space="preserve" viewBox="0 0 512.001 512.001">
    <g>
      <g>
        <path d="M294.137,62.109c-10.469-6.181-17.764-12.212-37.992-12.212c-19.766,0-27.334,5.925-37.429,11.684
			c-1.119,3.653-1.726,7.53-1.726,11.55c0,21.737,17.622,39.36,39.361,39.36s39.361-17.623,39.361-39.361
			C295.712,69.304,295.155,65.607,294.137,62.109z"></path>
      </g>
    </g>
    <g>
      <g>
        <path d="M159.675,299.462l-0.05,9.822c-0.052,10.488,8.407,19.034,18.897,19.086c0.032,0,0.066,0,0.098,0
			c10.444,0,18.937-8.44,18.99-18.897l0.05-10.012H159.675z"></path>
      </g>
    </g>
    <g>
      <g>
        <path d="M314.272,299.463l-0.009,9.899c-0.01,10.488,8.485,18.999,18.975,19.009c0.007,0,0.012,0,0.018,0
			c10.482,0,18.983-8.492,18.992-18.975l0.009-9.934H314.272z"></path>
      </g>
    </g>
    <g>
      <g>
        <path d="M352.376,169.756c-0.124-24.657-20.287-44.718-44.944-44.718h-21.214c-4.165,10.881-18.012,47.055-22.381,58.473
			l5.292-24.931c0.372-1.751,0.102-3.577-0.761-5.145l-7.268-13.219l6.461-11.751c0.448-0.815,0.433-1.806-0.04-2.606
			s-1.334-1.292-2.264-1.292h-17.734c-0.929,0-1.791,0.491-2.264,1.292c-0.473,0.8-0.489,1.792-0.041,2.606l6.461,11.751
			l-7.295,13.268c-0.846,1.539-1.122,3.326-0.78,5.049l4.627,24.978c-4.237-10.867-17.894-47.562-22.148-58.473H205.27
			c-24.66,0-44.821,20.062-44.943,44.719l-0.573,114.086h37.985l0.572-113.896c0.01-2.079,1.7-3.756,3.777-3.75
			c2.078,0.006,3.758,1.692,3.758,3.768l0.009,319.245c0,12.587,10.204,22.791,22.791,22.791s22.791-10.204,22.791-22.791V307.044
			h9.84V489.21c0,12.587,10.204,22.791,22.791,22.791s22.791-10.204,22.791-22.791c0-301.393-0.404-128.817-0.414-319.286
			c0-2.191,1.773-3.969,3.964-3.974c2.191-0.006,3.973,1.764,3.984,3.956l-0.105,113.937h37.984l0.105-113.972
			C352.376,169.832,352.376,169.795,352.376,169.756z M256.145,261.747c-3.161,0-5.724-2.563-5.724-5.724
			c0-3.161,2.563-5.724,5.724-5.724c3.161,0,5.724,2.563,5.724,5.724C261.869,259.184,259.306,261.747,256.145,261.747z
			 M256.145,234.166c-3.161,0-5.724-2.563-5.724-5.724c0-3.161,2.562-5.724,5.724-5.724c3.161,0,5.724,2.563,5.724,5.724
			C261.869,231.603,259.306,234.166,256.145,234.166z M256.145,206.586c-3.154,0-5.724-2.558-5.724-5.724
			c0-3.129,2.543-5.724,5.724-5.724c3.191,0,5.724,2.615,5.724,5.724C261.869,204.108,259.156,206.586,256.145,206.586z"></path>
      </g>
    </g>
    <g>
      <g>
        <path d="M285.756,0h-58.733c-2.615,0-4.734,2.12-4.734,4.734v39.231c8.145-4.647,20.286-7.598,33.856-7.598
			c13.841,0,26.202,3.068,34.346,7.877V4.734C290.49,2.119,288.37,0,285.756,0z"></path>
      </g>
    </g>
  </symbol>
<symbol viewBox="0 0 13 13" fill="none" xmlns="http://www.w3.org/2000/svg" id="clock">
<g clip-path="url(#clip0_1_74)">
<path d="M13 6.5C13 8.22391 12.3152 9.87721 11.0962 11.0962C9.87721 12.3152 8.22391 13 6.5 13C4.77609 13 3.12279 12.3152 1.90381 11.0962C0.68482 9.87721 0 8.22391 0 6.5C0 4.77609 0.68482 3.12279 1.90381 1.90381C3.12279 0.68482 4.77609 0 6.5 0C8.22391 0 9.87721 0.68482 11.0962 1.90381C12.3152 3.12279 13 4.77609 13 6.5ZM6.5 2.84375C6.5 2.73601 6.4572 2.63267 6.38101 2.55649C6.30483 2.4803 6.20149 2.4375 6.09375 2.4375C5.98601 2.4375 5.88267 2.4803 5.80649 2.55649C5.7303 2.63267 5.6875 2.73601 5.6875 2.84375V7.3125C5.68752 7.38411 5.70647 7.45444 5.74243 7.51636C5.77839 7.57829 5.83007 7.62961 5.89225 7.66512L8.736 9.29012C8.82932 9.34056 8.93867 9.35249 9.04068 9.32337C9.14268 9.29425 9.22925 9.22639 9.28188 9.13429C9.33451 9.04218 9.34902 8.93315 9.32233 8.83048C9.29563 8.72782 9.22983 8.63967 9.139 8.58488L6.5 7.07688V2.84375Z" fill="#00C2FF"/>
</g>
<defs>
<clipPath id="clip0_1_74">
<rect width="13" height="13" fill="white"/>
</clipPath>
</defs>
</symbol>
<symbol viewBox="0 0 13 15" fill="none" xmlns="http://www.w3.org/2000/svg" id="map">
<path d="M6.49998 0.416748C3.37552 0.416748 0.83331 2.95896 0.83331 6.07987C0.812768 10.6451 6.28464 14.4304 6.49998 14.5834C6.49998 14.5834 12.1872 10.6451 12.1666 6.08342C12.1666 2.95896 9.62444 0.416748 6.49998 0.416748ZM6.49998 8.91675C4.93456 8.91675 3.66664 7.64883 3.66664 6.08342C3.66664 4.518 4.93456 3.25008 6.49998 3.25008C8.06539 3.25008 9.33331 4.518 9.33331 6.08342C9.33331 7.64883 8.06539 8.91675 6.49998 8.91675Z" fill="#00C2FF"/>
</symbol>
<symbol viewBox="0 0 24 24" fill="none" xmlns="http://www.w3.org/2000/svg" id="route">
<path d="M6.016 4.50195C5.62481 4.50156 5.23738 4.57832 4.8759 4.72784C4.51441 4.87736 4.18596 5.0967 3.90935 5.37331C3.63274 5.64992 3.4134 5.97837 3.26388 6.33986C3.11436 6.70134 3.0376 7.08877 3.038 7.47995C3.038 9.71295 6.016 13.01 6.016 13.01C6.016 13.01 8.994 9.71295 8.994 7.47995C8.99439 7.08877 8.91763 6.70134 8.76811 6.33986C8.61859 5.97837 8.39925 5.64992 8.12264 5.37331C7.84603 5.0967 7.51758 4.87736 7.15609 4.72784C6.79461 4.57832 6.40718 4.50156 6.016 4.50195ZM6.016 8.54295C5.80575 8.54295 5.60023 8.48061 5.42542 8.36381C5.25062 8.247 5.11437 8.08099 5.03391 7.88675C4.95346 7.69251 4.93241 7.47878 4.97342 7.27257C5.01444 7.06637 5.11568 6.87696 5.26434 6.7283C5.413 6.57964 5.60241 6.4784 5.80861 6.43738C6.01482 6.39636 6.22855 6.41742 6.42279 6.49787C6.61703 6.57833 6.78304 6.71457 6.89985 6.88938C7.01665 7.06419 7.079 7.26971 7.079 7.47995C7.07873 7.7618 6.96665 8.03202 6.76736 8.23132C6.56806 8.43061 6.29784 8.54269 6.016 8.54295Z" fill="#121214"/>
<path d="M21.024 11.296V6.99605C21.017 6.5445 20.9484 6.09603 20.82 5.66305C20.4919 4.51837 19.7657 3.52853 18.7723 2.87191C17.7789 2.21529 16.5837 1.93508 15.402 2.08176C14.2203 2.22845 13.1298 2.7924 12.3271 3.67197C11.5244 4.55154 11.0623 5.68889 11.024 6.87905V7.12705L11.014 7.99705V17.949H11.01V17.99C11.01 18.5205 10.7993 19.0292 10.4242 19.4043C10.0491 19.7793 9.54044 19.99 9.01001 19.99C8.47958 19.99 7.97087 19.7793 7.5958 19.4043C7.22072 19.0292 7.01001 18.5205 7.01001 17.99C7.01001 17.978 7.01301 17.966 7.01401 17.953H7.01001V16.01H5.01001V18.01H5.01201C5.01267 19.0704 5.43453 20.087 6.18476 20.8363C6.935 21.5856 7.95217 22.0062 9.01251 22.0055C10.0728 22.0049 11.0895 21.583 11.8388 20.8328C12.5881 20.0826 13.0087 19.0654 13.008 18.005H13.01V17.023H13.015V8.99705L13.025 7.12705V6.88005C13.0535 6.09281 13.3904 5.34834 13.963 4.80733C14.5356 4.26631 15.298 3.97213 16.0856 3.98827C16.8731 4.00442 17.6228 4.3296 18.1727 4.89363C18.7227 5.45765 19.0288 6.2153 19.025 7.00305V11.278C18.6421 11.4947 18.3413 11.8317 18.1694 12.2367C17.9974 12.6417 17.9639 13.0921 18.074 13.5181C18.1842 13.9441 18.4317 14.3219 18.7784 14.5928C19.1251 14.8638 19.5515 15.0128 19.9914 15.0168C20.4314 15.0207 20.8604 14.8794 21.2119 14.6147C21.5634 14.3501 21.8177 13.9768 21.9355 13.5529C22.0533 13.1289 22.0279 12.678 21.8633 12.27C21.6986 11.8619 21.404 11.5196 21.025 11.296H21.024Z" fill="#121214"/>
</symbol>
<symbol viewBox="0 0 14 10" fill="none" xmlns="http://www.w3.org/2000/svg" id="slider-arrow-left">
<path fill-rule="evenodd" clip-rule="evenodd" d="M14 5.0001C14 5.13271 13.9473 5.25989 13.8536 5.35365C13.7598 5.44742 13.6326 5.5001 13.5 5.5001L1.707 5.5001L4.854 8.6461C4.94789 8.73999 5.00063 8.86733 5.00063 9.0001C5.00063 9.13288 4.94789 9.26021 4.854 9.3541C4.76011 9.44799 4.63278 9.50073 4.5 9.50073C4.36722 9.50073 4.23989 9.44799 4.146 9.3541L0.146 5.3541C0.0994368 5.30766 0.0624943 5.25248 0.0372877 5.19173C0.0120811 5.13099 -0.000893593 5.06587 -0.000893593 5.0001C-0.000893593 4.93433 0.0120811 4.86921 0.0372877 4.80847C0.0624943 4.74772 0.0994368 4.69255 0.146 4.6461L4.146 0.646101C4.23989 0.552215 4.36722 0.49947 4.5 0.49947C4.63278 0.49947 4.76011 0.552215 4.854 0.646101C4.94789 0.739987 5.00063 0.867326 5.00063 1.0001C5.00063 1.13288 4.94789 1.26021 4.854 1.3541L1.707 4.5001L13.5 4.5001C13.6326 4.5001 13.7598 4.55278 13.8536 4.64655C13.9473 4.74032 14 4.86749 14 5.0001Z" fill="white"/>
</symbol>
<symbol viewBox="0 0 14 10" fill="none" xmlns="http://www.w3.org/2000/svg" id="slider-arrow-right">
<path fill-rule="evenodd" clip-rule="evenodd" d="M0 4.9999C0 4.86729 0.0526784 4.74011 0.146447 4.64635C0.240215 4.55258 0.367392 4.4999 0.5 4.4999H12.293L9.146 1.3539C9.05211 1.26001 8.99937 1.13267 8.99937 0.999899C8.99937 0.867123 9.05211 0.739786 9.146 0.645899C9.23989 0.552012 9.36722 0.499268 9.5 0.499268C9.63278 0.499268 9.76011 0.552012 9.854 0.645899L13.854 4.6459C13.9006 4.69234 13.9375 4.74752 13.9627 4.80827C13.9879 4.86901 14.0009 4.93413 14.0009 4.9999C14.0009 5.06567 13.9879 5.13079 13.9627 5.19153C13.9375 5.25228 13.9006 5.30745 13.854 5.3539L9.854 9.3539C9.76011 9.44779 9.63278 9.50053 9.5 9.50053C9.36722 9.50053 9.23989 9.44779 9.146 9.3539C9.05211 9.26001 8.99937 9.13267 8.99937 8.9999C8.99937 8.86712 9.05211 8.73979 9.146 8.6459L12.293 5.4999H0.5C0.367392 5.4999 0.240215 5.44722 0.146447 5.35345C0.0526784 5.25968 0 5.13251 0 4.9999Z" fill="white"/>
</symbol>
<symbol viewBox="0 0 19 13" fill="none" xmlns="http://www.w3.org/2000/svg" id="check">
<path fill-rule="evenodd" clip-rule="evenodd" d="M18 0.857255C18.2344 1.09166 18.366 1.40955 18.366 1.741C18.366 2.07246 18.2344 2.39035 18 2.62475L8.00004 12.6248C7.76563 12.8591 7.44775 12.9907 7.11629 12.9907C6.78484 12.9907 6.46695 12.8591 6.23254 12.6248L1.23254 7.62475C1.00484 7.389 0.878852 7.07325 0.8817 6.7455C0.884548 6.41776 1.01601 6.10424 1.24777 5.87248C1.47953 5.64072 1.79304 5.50926 2.12079 5.50641C2.44854 5.50356 2.76429 5.62956 3.00004 5.85725L7.11629 9.97351L16.2325 0.857255C16.467 0.622916 16.7848 0.491272 17.1163 0.491272C17.4477 0.491272 17.7656 0.622916 18 0.857255Z" fill="white"/>
</symbol>
<symbol viewBox="0 0 223 158" fill="none" xmlns="http://www.w3.org/2000/svg" id="offers">
<path fill-rule="evenodd" clip-rule="evenodd" d="M215.254 378.926C193.452 364.627 174.08 348.789 155.67 330.315C137.86 312.442 126.62 290.412 109.026 272.326C74.1871 236.512 -5.37655 221.296 1.39613 171.724C7.82292 124.685 85.903 134.212 130.204 117.316C156.162 107.416 185.287 108.283 208.362 92.79C245.246 68.0245 259.538 -9.47078 302.51 1.62315C346.112 12.8796 307.966 101.212 344.271 127.877C388.846 160.616 487.435 98.5814 505.689 150.852C523.528 201.936 417.813 214.784 391.052 261.837C374.902 290.232 401.544 328.479 387.807 358.119C372.615 390.897 347.653 428.422 311.844 432.74C274.616 437.229 246.611 399.491 215.254 378.926Z" fill="#00C2FF"/>
</symbol>
<symbol viewBox="0 0 10 22" xmlns="http://www.w3.org/2000/svg" id="arrow-questions">
<path d="M9.65542 10.3966L1.32989 0.249089C1.05711 -0.0831874 0.615484 -0.0826288 0.343164 0.250807C0.0710562 0.5842 0.0717593 1.12427 0.344571 1.45681L8.17454 11.0003L0.344289 20.5438C0.0715131 20.8764 0.07081 21.4161 0.342883 21.7496C0.479394 21.9167 0.658234 22.0003 0.837073 22.0003C1.01545 22.0003 1.19359 21.9173 1.32986 21.7513L9.65542 11.604C9.7868 11.4443 9.86052 11.2269 9.86052 11.0003C9.86052 10.7738 9.78659 10.5566 9.65542 10.3966Z"/>
</symbol>
<symbol viewBox="0 0 153 114" fill="none" xmlns="http://www.w3.org/2000/svg" id="question">
<path d="M14.625 57C7.0625 57 0.875 51.375 0.875 44.5V13.25C0.875 6.375 7.0625 0.75 14.625 0.75H69.625C77.1875 0.75 83.375 6.375 83.375 13.25V44.5C83.375 51.375 77.1875 57 69.625 57H55.875V75.75L35.25 57H14.625ZM138.375 94.5C145.937 94.5 152.125 88.875 152.125 82V50.75C152.125 43.875 145.937 38.25 138.375 38.25H97.125V44.5C97.125 58.25 84.75 69.5 69.625 69.5V82C69.625 88.875 75.8125 94.5 83.375 94.5H97.125V113.25L117.75 94.5H138.375Z" fill="#121214"/>
</symbol>
<symbol viewBox="0 0 23 23" fill="none" xmlns="http://www.w3.org/2000/svg" id="house">
<g clip-path="url(#clip0_1_485)">
<path d="M23.2988 9.95899C23.2981 9.95846 23.2976 9.95776 23.2971 9.95723L13.9149 0.575387C13.5149 0.175301 12.9833 -0.0449219 12.4177 -0.0449219C11.8521 -0.0449219 11.3204 0.175301 10.9204 0.575387L1.54307 9.9525C1.53991 9.95566 1.53658 9.95899 1.53359 9.96215C0.712365 10.7881 0.713768 12.1282 1.53763 12.9521C1.91403 13.3287 2.41098 13.5466 2.94249 13.5696C2.96425 13.5717 2.98601 13.5728 3.00795 13.5728H3.38171V20.477C3.38171 21.8435 4.49353 22.9551 5.85996 22.9551H9.53058C9.90277 22.9551 10.2044 22.6533 10.2044 22.2813V16.8682C10.2044 16.2447 10.7117 15.7376 11.3352 15.7376H13.5002C14.1237 15.7376 14.6308 16.2447 14.6308 16.8682V22.2813C14.6308 22.6533 14.9324 22.9551 15.3046 22.9551H18.9752C20.3419 22.9551 21.4535 21.8435 21.4535 20.477V13.5728H21.8002C22.3656 13.5728 22.8973 13.3525 23.2976 12.9523C24.1223 12.1272 24.1227 10.7846 23.2988 9.95899ZM22.3446 11.9994C22.1991 12.1449 22.0057 12.2251 21.8002 12.2251H20.7797C20.4075 12.2251 20.1058 12.5267 20.1058 12.8989V20.477C20.1058 21.1003 19.5987 21.6075 18.9752 21.6075H15.9785V16.8682C15.9785 15.5018 14.8668 14.3899 13.5002 14.3899H11.3352C9.96857 14.3899 8.85675 15.5018 8.85675 16.8682V21.6075H5.85996C5.23667 21.6075 4.72937 21.1003 4.72937 20.477V12.8989C4.72937 12.5267 4.42773 12.2251 4.05554 12.2251H3.05252C3.04199 12.2244 3.03164 12.2239 3.02093 12.2237C2.82019 12.2202 2.6319 12.1405 2.49082 11.9993C2.19075 11.6992 2.19075 11.2108 2.49082 10.9106C2.49099 10.9106 2.49099 10.9104 2.49117 10.9102L2.4917 10.9097L11.8735 1.52822C12.0188 1.38275 12.212 1.30274 12.4177 1.30274C12.6232 1.30274 12.8164 1.38275 12.9618 1.52822L22.3416 10.9078C22.343 10.9092 22.3446 10.9106 22.346 10.912C22.6445 11.2126 22.6439 11.6999 22.3446 11.9994Z" fill="white"/>
</g>
<defs>
<clipPath id="clip0_1_485">
<rect width="23" height="23" fill="white" transform="translate(0.872925)"/>
</clipPath>
</defs>
</symbol>
<symbol viewBox="0 0 23 23" fill="none" xmlns="http://www.w3.org/2000/svg" id="tel">
<g clip-path="url(#clip0_1_500)">
<path d="M14.4294 23C13.7813 23 13.1387 22.8687 12.5104 22.6072C9.74221 21.4552 7.17275 19.5789 5.07969 17.1811C2.98664 14.7833 1.34882 11.8397 0.343266 8.6684C0.020133 7.64925 -0.0752268 6.59723 0.0599316 5.54143C0.186542 4.55247 0.520929 3.59239 1.02698 2.76496C1.53526 1.9339 2.2129 1.24267 2.9866 0.766021C3.81167 0.257751 4.71221 0 5.6633 0C5.9591 0 6.21476 0.236774 6.27675 0.568104L7.26148 5.83269C7.30606 6.07108 7.24211 6.31913 7.09166 6.49153L5.40902 8.41914C6.99634 12.0346 9.57199 14.9853 12.7279 16.8037L14.4105 14.8761C14.561 14.7037 14.7775 14.6305 14.9856 14.6815L19.581 15.8097C19.8703 15.8807 20.0769 16.1735 20.0769 16.5124C20.0769 17.602 19.8519 18.6337 19.4082 19.5789C18.9921 20.4653 18.3888 21.2416 17.6633 21.8239C16.9411 22.4036 16.1031 22.7867 15.2398 22.9318C14.9693 22.9773 14.6988 23 14.4294 23ZM5.16203 1.46889C3.9075 1.62754 2.794 2.38085 2.05457 3.58987C1.22307 4.94938 1.02917 6.62153 1.5226 8.17765C3.45583 14.2745 7.61688 19.0414 12.9388 21.2562C14.297 21.8214 15.7567 21.5993 16.9434 20.6467C17.9988 19.7996 18.6563 18.524 18.7948 17.0868L15.0564 16.1691L13.2992 18.1822C13.1122 18.3964 12.8281 18.4533 12.5888 18.3245C8.85636 16.3157 5.83512 12.8545 4.08163 8.57856C3.96921 8.30441 4.01885 7.97892 4.20585 7.76474L5.9631 5.75161L5.16203 1.46889Z" fill="white"/>
</g>
<defs>
<clipPath id="clip0_1_500">
<rect width="20.0766" height="23" fill="white"/>
</clipPath>
</defs>
</symbol>
<symbol viewBox="0 0 23 23" fill="none" xmlns="http://www.w3.org/2000/svg" id="email">
<g clip-path="url(#clip0_1_492)">
<path d="M19.9044 2.97852H1.91798C0.861727 2.97852 0 3.96465 0 5.17578V19.8242C0 21.0312 0.857891 22.0215 1.91798 22.0215H19.9044C20.958 22.0215 21.8224 21.0387 21.8224 19.8242V5.17578C21.8224 3.96875 20.9645 2.97852 19.9044 2.97852ZM19.6395 4.44336L10.9518 14.3961L2.18901 4.44336H19.6395ZM1.27865 19.5209V5.47212L7.43661 12.4663L1.27865 19.5209ZM2.18279 20.5566L8.34462 13.4976L10.5037 15.9498C10.7536 16.2337 11.157 16.2328 11.4059 15.9476L13.5111 13.5358L19.6396 20.5566H2.18279ZM20.5437 19.5208L14.4152 12.5L20.5437 5.4791V19.5208Z" fill="white"/>
</g>
<defs>
<clipPath id="clip0_1_492">
<rect width="21.8224" height="25" fill="white"/>
</clipPath>
</defs>
</symbol>
<symbol viewBox="0 0 27 29" fill="none" xmlns="http://www.w3.org/2000/svg" id="time">
<path d="M13.0934 26.5833C19.1195 26.5833 24.0046 21.1734 24.0046 14.5C24.0046 7.82652 19.1195 2.41663 13.0934 2.41663C7.06732 2.41663 2.18222 7.82652 2.18222 14.5C2.18222 21.1734 7.06732 26.5833 13.0934 26.5833Z" stroke="white" stroke-width="2" stroke-linecap="round" stroke-linejoin="round"/>
<path d="M16.3668 19.3333L13.7328 16.4164C13.3235 15.9633 13.0935 15.3487 13.0934 14.7078V7.25" stroke="white" stroke-width="2" stroke-linecap="round" stroke-linejoin="round"/>
</symbol>
<symbol viewBox="0 0 31 36" fill="none" xmlns="http://www.w3.org/2000/svg" id="whatsapp">
<path d="M21.3956 20.8289C21.0742 20.6397 19.4729 19.7411 19.1751 19.6195C18.8772 19.4911 18.659 19.4303 18.4438 19.8087C18.2255 20.1836 17.6063 21.0181 17.4116 21.2715C17.2229 21.5214 17.0312 21.5519 16.7098 21.366C14.7989 20.2715 13.5457 19.4134 12.2865 16.9371C11.9532 16.2783 12.6197 16.3256 13.2419 14.9034C13.3481 14.6534 13.295 14.4405 13.2124 14.2514C13.1299 14.0622 12.4811 12.2311 12.2098 11.4845C11.9474 10.7582 11.6761 10.8595 11.4785 10.846C11.2897 10.8325 11.0745 10.8325 10.8563 10.8325C10.638 10.8325 10.2871 10.9271 9.98929 11.2953C9.69145 11.6703 8.85101 12.5723 8.85101 14.4034C8.85101 16.2344 10.0158 18.008 10.1751 18.258C10.3402 18.508 12.4664 22.2647 15.7308 23.8829C17.795 24.9031 18.603 24.991 19.6351 24.8153C20.2632 24.7072 21.5578 23.9167 21.8261 23.0417C22.0945 22.1701 22.0945 21.4235 22.0149 21.2681C21.9352 21.1025 21.717 21.0079 21.3956 20.8289Z" fill="white"/>
<path d="M27.6384 11.9947C26.972 10.1805 26.0165 8.55217 24.7986 7.15356C23.5807 5.75832 22.1594 4.66037 20.5729 3.90026C18.951 3.11987 17.2288 2.72461 15.4536 2.72461H15.3946C13.6076 2.73474 11.8766 3.14014 10.2488 3.93742C8.67703 4.70767 7.26746 5.80224 6.06136 7.19747C4.85526 8.59271 3.90866 10.2143 3.25401 12.0217C2.57576 13.8933 2.23369 15.8831 2.24254 17.9303C2.25138 20.2749 2.7409 22.6025 3.65801 24.6835V29.8185C3.65801 30.6766 4.26548 31.3726 5.0145 31.3726H9.49977C11.3163 32.4232 13.3481 32.984 15.3946 32.9941H15.4565C17.2229 32.9941 18.9362 32.6023 20.5493 31.8354C22.1269 31.082 23.5454 30.001 24.7603 28.6192C25.9782 27.2375 26.9366 25.6227 27.606 23.8221C28.3019 21.9572 28.6558 19.9742 28.6646 17.9269C28.6735 15.8696 28.3255 13.873 27.6384 11.9947ZM23.1826 26.7916C21.1155 29.1361 18.373 30.4266 15.4536 30.4266H15.4035C13.6253 30.4165 11.8589 29.9098 10.2989 28.9571L10.0512 28.8051H5.89917V24.0484L5.76647 23.7646C4.93488 21.9775 4.49255 19.9539 4.4837 17.9168C4.4719 14.5486 5.59543 11.3866 7.65671 9.00486C9.71504 6.62316 12.4664 5.30563 15.4064 5.29211H15.4565C16.931 5.29211 18.3612 5.61981 19.7088 6.26844C21.0241 6.90018 22.2036 7.80894 23.218 8.97108C24.2295 10.1298 25.0257 11.4845 25.5771 12.9913C26.1492 14.552 26.4353 16.2074 26.4294 17.9168C26.4117 21.2816 25.2587 24.4335 23.1826 26.7916Z" fill="white"/>
</symbol>
<symbol viewBox="0 0 36 41" fill="none" xmlns="http://www.w3.org/2000/svg" id="ista">
<g clip-path="url(#clip0_1_512)">
<path d="M17.912 26.3138C20.8369 26.3138 23.2079 23.6816 23.2079 20.4346C23.2079 17.1875 20.8369 14.5553 17.912 14.5553C14.9871 14.5553 12.616 17.1875 12.616 20.4346C12.616 23.6816 14.9871 26.3138 17.912 26.3138Z" fill="#121214"/>
<path d="M26.1091 20.7628C26.1091 25.7881 22.4391 29.8612 17.9119 29.8612C13.3848 29.8612 9.71478 25.7881 9.71478 20.7628C9.71478 19.8622 9.8334 18.9923 10.0531 18.1707H7.6308V30.9329C7.6308 31.5939 8.10237 32.1337 8.67901 32.1337H27.0434C27.6205 32.1337 28.0924 31.5939 28.0924 30.9329V18.1707H25.7708C25.9901 18.9923 26.1091 19.8622 26.1091 20.7628Z" fill="#121214"/>
<path d="M23.912 14.7267H26.8926C27.5458 14.7267 28.0796 14.1152 28.0796 13.3669V10.1112C28.0796 9.36252 27.5458 8.75098 26.8926 8.75098H23.912C23.2585 8.75098 22.7247 9.36252 22.7247 10.1112V13.3669C22.7243 14.1147 23.2585 14.7267 23.912 14.7267Z" fill="#121214"/>
<path d="M17.8867 0C8.00391 0 -0.00762939 9.17813 -0.00762939 20.5C-0.00762939 31.8219 8.00391 41 17.8867 41C27.7695 41 35.781 31.8219 35.781 20.5C35.781 9.17813 27.7695 0 17.8867 0ZM27.6879 35.6065H8.08592C6.22344 35.6065 4.70073 34.0273 4.70073 31.7292V9.27166C4.70073 6.97273 6.22344 5.39396 8.08592 5.39396H27.6879C29.55 5.39396 31.073 6.97273 31.073 9.27166V31.7292C31.073 34.0273 29.5496 35.6065 27.6879 35.6065Z" fill="#121214"/>
</g>
<defs>
<clipPath id="clip0_1_512">
<rect width="35.7887" height="41" fill="white" transform="translate(-0.00762939)"/>
</clipPath>
</defs>
</symbol>
<symbol viewBox="0 0 50 50" fill="none" xmlns="http://www.w3.org/2000/svg" id="sale">
<path d="M18.8607 49.8348C18.2447 50.1871 17.4593 49.9566 17.1315 49.3273L13.842 43.0127L6.79567 42.6132C6.09214 42.5733 5.56062 41.9601 5.62104 41.258L6.23366 34.14L0.511491 29.9491C-0.0536939 29.5352 -0.168393 28.7376 0.257237 28.1812L4.58149 22.5281L2.00824 15.8715C1.75509 15.2167 2.09078 14.4818 2.75151 14.2444L9.40553 11.8539L10.8019 4.85361C10.9403 4.15982 11.6264 3.71905 12.315 3.88158L19.1846 5.50316L24.0982 0.384368C24.5902 -0.128123 25.4098 -0.128123 25.9018 0.384368L30.8154 5.50316L37.685 3.88158C38.3736 3.71905 39.0597 4.15982 39.1981 4.85361L40.5945 11.8539L47.2485 14.2444C47.9092 14.4818 48.2449 15.2167 47.9918 15.8715L45.4185 22.5281L49.7428 28.1812C50.1684 28.7376 50.0537 29.5352 49.4885 29.9491L43.7663 34.14L44.379 41.258C44.4394 41.9601 43.9079 42.5733 43.2043 42.6132L36.158 43.0127L32.8685 49.3273C32.5407 49.9566 31.7553 50.1871 31.1393 49.8348L25 46.3235L18.8607 49.8348ZM18.748 47.0192L24.3794 43.7984C24.7639 43.5785 25.2361 43.5785 25.6206 43.7984L31.252 47.0192L34.2692 41.2275C34.4728 40.8367 34.8671 40.5819 35.307 40.557L41.7778 40.1901L41.2153 33.654C41.1779 33.2192 41.37 32.7963 41.7221 32.5384L46.9816 28.6864L43.0071 23.4904C42.7426 23.1447 42.6771 22.6863 42.834 22.2803L45.1983 16.1643L39.0842 13.9677C38.6716 13.8195 38.3668 13.4658 38.281 13.0359L36.9996 6.61208L30.6951 8.10026C30.2646 8.20188 29.8125 8.06842 29.5062 7.74932L25 3.05503L20.4938 7.74932C20.1875 8.06842 19.7354 8.20188 19.3049 8.10026L13.0004 6.61208L11.719 13.0359C11.6332 13.4658 11.3284 13.8195 10.9158 13.9677L4.80171 16.1643L7.16597 22.2803C7.32292 22.6863 7.25736 23.1447 6.9929 23.4904L3.01837 28.6864L8.27791 32.5384C8.63003 32.7963 8.82214 33.2192 8.78471 33.654L8.22219 40.1901L14.693 40.557C15.1329 40.5819 15.5272 40.8367 15.7308 41.2275L18.748 47.0192ZM30.2328 15.5234C30.6341 14.9616 31.4148 14.8315 31.9765 15.2328C32.5383 15.634 32.6684 16.4147 32.2671 16.9765L19.7672 34.4764C19.3659 35.0381 18.5852 35.1682 18.0235 34.767C17.4617 34.3657 17.3316 33.585 17.7329 33.0233L30.2328 15.5234ZM17.5 17.4999V19.9999H20V17.4999H17.5ZM17.5 14.9999H20C21.3807 14.9999 22.5 16.1192 22.5 17.4999V19.9999C22.5 21.3806 21.3807 22.4999 20 22.4999H17.5C16.1193 22.4999 15 21.3806 15 19.9999V17.4999C15 16.1192 16.1193 14.9999 17.5 14.9999ZM30 29.9998V32.4998H32.5V29.9998H30ZM30 27.4999H32.5C33.8807 27.4999 35 28.6191 35 29.9998V32.4998C35 33.8805 33.8807 34.9998 32.5 34.9998H30C28.6193 34.9998 27.5 33.8805 27.5 32.4998V29.9998C27.5 28.6191 28.6193 27.4999 30 27.4999Z" fill="#00C2FF"/>
</symbol>
<symbol viewBox="0 0 54 54" fill="none" xmlns="http://www.w3.org/2000/svg" id="moscow">
<path d="M23.4064 13.0863C23.9118 13.0863 24.3216 12.7102 24.3216 12.2462C24.3216 11.7822 23.9118 11.406 23.4064 11.406C22.9009 11.406 22.4912 11.7822 22.4912 12.2462C22.4912 12.7102 22.9009 13.0863 23.4064 13.0863Z" fill="black"/>
<path d="M11.8214 12.6556C12.8076 12.6556 13.6071 11.9217 13.6071 11.0163C13.6071 10.1109 12.8076 9.37695 11.8214 9.37695C10.8351 9.37695 10.0356 10.1109 10.0356 11.0163C10.0356 11.9217 10.8351 12.6556 11.8214 12.6556Z" stroke="#00C2FF" stroke-width="2.97126" stroke-linecap="round" stroke-linejoin="round"/>
<path d="M11.9438 18.145V19.3049" stroke="#00C2FF" stroke-width="2.97126" stroke-linecap="round" stroke-linejoin="round"/>
<path d="M11.9438 22.7837V23.9435" stroke="#00C2FF" stroke-width="2.97126" stroke-linecap="round" stroke-linejoin="round"/>
<path d="M8.78589 21.0442H10.0484" stroke="#00C2FF" stroke-width="2.97126" stroke-linecap="round" stroke-linejoin="round"/>
<path d="M13.8386 21.0442H15.102" stroke="#00C2FF" stroke-width="2.97126" stroke-linecap="round" stroke-linejoin="round"/>
<path d="M39.5002 21.6721V31.6746" stroke="#00C2FF" stroke-width="2.97126" stroke-linecap="round" stroke-linejoin="round"/>
<path d="M31.0981 21.6723H41.2214L35.0356 11.0166L29.5955 20.3887" stroke="#00C2FF" stroke-width="2.97126" stroke-linecap="round" stroke-linejoin="round"/>
<path d="M35.0359 11.0164V2" stroke="#00C2FF" stroke-width="2.97126" stroke-linecap="round" stroke-linejoin="round"/>
<path d="M32.3572 4.45898H37.7143" stroke="#00C2FF" stroke-width="2.97126" stroke-linecap="round" stroke-linejoin="round"/>
<path d="M41.2217 34.7869H48.494C49.0569 33.28 49.3368 31.6962 49.3217 30.1033C49.3217 25.4467 44.411 21.6721 44.411 21.6721C44.411 21.6721 39.5003 25.4467 39.5003 30.1033C39.4991 30.9418 39.5729 31.7791 39.7208 32.6065" stroke="#00C2FF" stroke-width="2.97126" stroke-linecap="round" stroke-linejoin="round"/>
<path d="M41.2217 34.7869H48.4288V41.0869" stroke="#00C2FF" stroke-width="2.97126" stroke-linecap="round" stroke-linejoin="round"/>
<path d="M23.5681 31.5081H32.1207C32.8778 30.0452 33.2639 28.4439 33.2502 26.8245C33.2502 22.1679 26.5538 18.3933 26.5538 18.3933C26.5538 18.3933 21.1457 21.4417 20.0493 25.4384" stroke="#00C2FF" stroke-width="2.97126" stroke-linecap="round" stroke-linejoin="round"/>
<path d="M31.4644 31.8369V41.0869" stroke="#00C2FF" stroke-width="2.97126" stroke-linecap="round" stroke-linejoin="round"/>
<path d="M52 52H2" stroke="#00C2FF" stroke-width="2.97126" stroke-linecap="round" stroke-linejoin="round"/>
<path d="M38.6071 30.6885L32.4214 41.3442H44.7928L38.6071 30.6885Z" stroke="#00C2FF" stroke-width="2.97126" stroke-linecap="round" stroke-linejoin="round"/>
<path d="M9.14296 28.2295L5.57153 38.8852H12.7144L9.14296 28.2295Z" stroke="#00C2FF" stroke-width="2.97126" stroke-linecap="round" stroke-linejoin="round"/>
<path d="M22.751 38.0657C23.2145 36.5413 23.4427 34.9647 23.4287 33.3821C23.4287 28.7214 19.4108 24.9509 19.4108 24.9509C19.4108 24.9509 15.3929 28.7214 15.3929 33.3821C15.3789 34.9647 15.6071 36.5413 16.0706 38.0657H22.751Z" stroke="#00C2FF" stroke-width="2.97126" stroke-linecap="round" stroke-linejoin="round"/>
<path d="M50.2145 51.7654V41.3441H22.5359V38.0654H16.2859V41.3441H3.78589V51.6999" stroke="#00C2FF" stroke-width="2.97126" stroke-linecap="round" stroke-linejoin="round"/>
<path d="M20.7502 51.7654V50.3605C20.7502 48.8388 20.0918 47.3794 18.9197 46.3033C17.7476 45.2273 16.1578 44.6228 14.5002 44.6228C12.8426 44.6228 11.2529 45.2273 10.0808 46.3033C8.90872 47.3794 8.25024 48.8388 8.25024 50.3605V51.7654" stroke="#00C2FF" stroke-width="2.97126" stroke-linecap="round" stroke-linejoin="round"/>
<path d="M11.8215 41.0871V39.2371" stroke="#00C2FF" stroke-width="2.97126" stroke-linecap="round" stroke-linejoin="round"/>
<path d="M6.46436 39.2371V41.0871" stroke="#00C2FF" stroke-width="2.97126" stroke-linecap="round" stroke-linejoin="round"/>
<path d="M25.2146 45.4426V52" stroke="#00C2FF" stroke-width="2.97126" stroke-linecap="round" stroke-linejoin="round"/>
<path d="M28.7859 45.4426V52" stroke="#00C2FF" stroke-width="2.97126" stroke-linecap="round" stroke-linejoin="round"/>
<path d="M32.3572 45.4426V52" stroke="#00C2FF" stroke-width="2.97126" stroke-linecap="round" stroke-linejoin="round"/>
<path d="M35.9287 45.4426V52" stroke="#00C2FF" stroke-width="2.97126" stroke-linecap="round" stroke-linejoin="round"/>
<path d="M39.5002 45.4426V52" stroke="#00C2FF" stroke-width="2.97126" stroke-linecap="round" stroke-linejoin="round"/>
<path d="M43.0715 45.4426V52" stroke="#00C2FF" stroke-width="2.97126" stroke-linecap="round" stroke-linejoin="round"/>
<path d="M46.6433 45.4426V52" stroke="#00C2FF" stroke-width="2.97126" stroke-linecap="round" stroke-linejoin="round"/>
</symbol>
<symbol viewBox="0 0 50 50" fill="none" xmlns="http://www.w3.org/2000/svg" id="bar">
<path d="M14.0627 3.125H17.1877V18.75H14.0627V3.125Z" fill="#00C2FF"/>
<path d="M21.875 17.1875C21.875 18.8451 21.2165 20.4348 20.0444 21.6069C18.8723 22.779 17.2826 23.4375 15.625 23.4375C13.9674 23.4375 12.3777 22.779 11.2056 21.6069C10.0335 20.4348 9.375 18.8451 9.375 17.1875V3.125H6.25V17.1875C6.25224 19.4014 7.03789 21.543 8.46779 23.2332C9.89769 24.9233 11.8796 26.0529 14.0625 26.4219V46.875H17.1875V26.4219C19.3704 26.0529 21.3523 24.9233 22.7822 23.2332C24.2121 21.543 24.9978 19.4014 25 17.1875V3.125H21.875V17.1875Z" fill="#00C2FF"/>
<path d="M34.3755 3.12497H32.813V46.875H35.938V31.25H40.6255C41.4543 31.25 42.2491 30.9207 42.8352 30.3347C43.4212 29.7486 43.7505 28.9538 43.7505 28.125V12.5C43.7988 11.2559 43.5894 10.0152 43.1353 8.85592C42.6813 7.69663 41.9925 6.64373 41.1121 5.76336C40.2317 4.88298 39.1788 4.19415 38.0195 3.74011C36.8602 3.28607 35.6196 3.07664 34.3755 3.12497ZM40.6255 28.125H35.938V6.3906C40.438 7.2656 40.6255 11.9218 40.6255 12.5V28.125Z" fill="#00C2FF"/>
</symbol>

</svg>