<svg width="0" height="0" class="hidden">
    <symbol fill="none" xmlns="http://www.w3.org/2000/svg" viewBox="0 0 35 27" id="phone">
        <path d="M31.1639 11.5237C29.394 11.5237 26.1858 10.8861 25.1861 9.88644C24.5724 9.27268 24.4278 8.50421 24.3105 7.88535C24.166 7.12368 24.0793 6.89755 23.7461 6.75304C22.2125 6.09338 20.0125 5.71594 17.7088 5.71594C15.4306 5.71594 13.2544 6.08828 11.7378 6.73604C11.408 6.87715 11.323 7.10327 11.1819 7.86325C11.0663 8.4838 10.9235 9.25568 10.3114 9.86774C9.75375 10.4254 8.58574 10.8096 7.70505 11.0323C6.56935 11.3197 5.35203 11.4863 4.36764 11.4863C3.23873 11.4863 2.47536 11.2721 2.03502 10.83C1.37025 10.1653 0.945212 9.25568 0.870405 8.33589C0.807499 7.56062 0.957113 6.41131 2.02651 5.34021C3.76408 3.60264 6.1001 2.24761 8.97337 1.31422C11.6154 0.453943 14.6213 0 17.668 0C20.7351 0 23.7665 0.459044 26.434 1.32953C29.3328 2.27482 31.6926 3.64345 33.4455 5.39801C35.2307 7.18318 34.7886 9.55151 33.4659 10.8742C33.0289 11.3112 32.2758 11.5237 31.1639 11.5237ZM17.7088 4.01578C20.2709 4.01578 22.6529 4.43402 24.4176 5.19059C25.6299 5.71084 25.8339 6.78534 25.9818 7.56742C26.0702 8.03496 26.1467 8.4396 26.3898 8.68272C26.8183 9.11116 29.2903 9.82353 31.1656 9.82353C31.9834 9.82353 32.2418 9.68412 32.2741 9.66372C32.8011 9.12987 33.4608 7.81734 32.2452 6.60003C29.1764 3.53123 23.7274 1.70016 17.668 1.70016C11.6579 1.70016 6.26162 3.51083 3.22853 6.54222C2.73888 7.03187 2.51446 7.58952 2.56377 8.19818C2.60627 8.71163 2.85279 9.24208 3.22683 9.61951C3.25913 9.63991 3.52096 9.78613 4.36594 9.78613C6.23271 9.78613 8.68605 9.08736 9.10769 8.66572C9.34741 8.426 9.42222 8.02136 9.50892 7.55382C9.65514 6.76834 9.85406 5.69214 11.068 5.17359C12.8123 4.42722 15.1705 4.01748 17.7071 4.01748L17.7088 4.01578Z" fill="black"></path>
        <path d="M28.7939 27.0001H6.69179C5.55098 27.0001 4.49858 26.5513 3.7284 25.7369C2.95823 24.9226 2.56889 23.8463 2.6318 22.7072C2.6386 22.5763 2.83242 19.4752 4.79101 16.3503C5.95052 14.5006 7.48746 13.0265 9.35764 11.969C11.6716 10.6616 14.4921 9.99854 17.7428 9.99854C20.9935 9.99854 23.8141 10.6616 26.128 11.969C27.9999 13.0265 29.5369 14.5006 30.6947 16.3503C32.6532 19.4769 32.8471 22.578 32.8539 22.7072C32.9168 23.8463 32.5274 24.9226 31.7573 25.7369C30.9871 26.5513 29.9347 27.0001 28.7939 27.0001ZM17.7428 11.6987C12.4434 11.6987 8.58236 13.5485 6.26845 17.1953C4.51728 19.9547 4.33196 22.7752 4.33026 22.8041C4.29286 23.4706 4.51898 24.098 4.96442 24.5689C5.40986 25.0399 6.02362 25.3 6.69349 25.3H28.7956C29.4637 25.3 30.0775 25.0399 30.5246 24.5689C30.9718 24.098 31.1962 23.4706 31.1588 22.8024C31.1571 22.7752 30.9701 19.9547 29.2206 17.1953C26.905 13.5485 23.0439 11.6987 17.7462 11.6987H17.7428Z" fill="black"></path>
        <path d="M17.7428 23.5994C14.9308 23.5994 12.6423 21.311 12.6423 18.4989C12.6423 15.6869 14.9308 13.3984 17.7428 13.3984C20.5549 13.3984 22.8433 15.6869 22.8433 18.4989C22.8433 21.311 20.5549 23.5994 17.7428 23.5994ZM17.7428 15.0986C15.8675 15.0986 14.3425 16.6236 14.3425 18.4989C14.3425 20.3742 15.8675 21.8992 17.7428 21.8992C19.6181 21.8992 21.1431 20.3742 21.1431 18.4989C21.1431 16.6236 19.6181 15.0986 17.7428 15.0986Z" fill="black"></path>
  </symbol>
    <symbol viewBox="0 0 28 26" fill="none" xmlns="http://www.w3.org/2000/svg" id="tree">
        <path fill-rule="evenodd" clip-rule="evenodd" d="M13.8538 8.60565C13.8538 13.0354 11.16 16.6835 7.69655 17.1589V23.6655H20.011V17.2443H16.3729C15.8055 17.2445 15.2547 17.0663 14.8096 16.7384C14.3646 16.4106 14.0513 15.9524 13.9205 15.438C13.7898 14.9236 13.8493 14.3831 14.0893 13.9041C14.3293 13.4251 14.7358 13.0356 15.243 12.7987C15.019 12.0962 15.0852 11.3411 15.4286 10.6818C15.772 10.0224 16.3678 9.50672 17.0986 9.23601C16.9713 8.72009 16.9704 8.18405 17.0961 7.66777C17.2218 7.15149 17.4708 6.66828 17.8247 6.25409C18.1785 5.8399 18.6281 5.50541 19.1399 5.2755C19.6517 5.0456 20.2125 4.9262 20.7807 4.9262C21.3488 4.9262 21.9097 5.0456 22.4215 5.2755C22.9333 5.50541 23.3828 5.8399 23.7367 6.25409C24.0905 6.66828 24.3396 7.15149 24.4653 7.66777C24.591 8.18405 24.5901 8.72009 24.4627 9.23601C25.1936 9.50672 25.7893 10.0224 26.1327 10.6818C26.4761 11.3411 26.5423 12.0962 26.3183 12.7987C26.8255 13.0356 27.2321 13.4251 27.4721 13.9041C27.7121 14.3831 27.7716 14.9236 27.6408 15.438C27.5101 15.9524 27.1968 16.4106 26.7517 16.7384C26.3067 17.0663 25.7558 17.2445 25.1885 17.2443H21.5503V23.6655H26.5531C26.8593 23.6655 27.1529 23.7789 27.3694 23.9806C27.5859 24.1823 27.7076 24.4559 27.7076 24.7412C27.7076 25.0265 27.5859 25.3001 27.3694 25.5019C27.1529 25.7036 26.8593 25.8169 26.5531 25.8169H1.15448C0.848294 25.8169 0.554647 25.7036 0.33814 25.5019C0.121632 25.3001 0 25.0265 0 24.7412C0 24.4559 0.121632 24.1823 0.33814 23.9806C0.554647 23.7789 0.848294 23.6655 1.15448 23.6655H6.15724V17.1589C2.69379 16.6835 0 13.0354 0 8.60565C0 3.85318 3.10171 0 6.92689 0C10.7521 0 13.8538 3.85318 13.8538 8.60565Z" fill="#121214"/>
    </symbol>
    <symbol viewBox="0 0 13 10" fill="none" xmlns="http://www.w3.org/2000/svg" id="arrow">
        <path fill-rule="evenodd" clip-rule="evenodd" d="M0.222198 4.9999C0.222198 4.86729 0.269024 4.74011 0.352373 4.64635C0.435723 4.55258 0.548769 4.4999 0.666643 4.4999H11.1493L8.35198 1.3539C8.26852 1.26001 8.22164 1.13267 8.22164 0.999899C8.22164 0.867123 8.26852 0.739786 8.35198 0.645899C8.43543 0.552012 8.54862 0.499268 8.66664 0.499268C8.78467 0.499268 8.89785 0.552012 8.98131 0.645899L12.5369 4.6459C12.5783 4.69234 12.6111 4.74752 12.6335 4.80827C12.6559 4.86901 12.6674 4.93413 12.6674 4.9999C12.6674 5.06567 12.6559 5.13079 12.6335 5.19153C12.6111 5.25228 12.5783 5.30745 12.5369 5.3539L8.98131 9.3539C8.89785 9.44779 8.78467 9.50053 8.66664 9.50053C8.54862 9.50053 8.43543 9.44779 8.35198 9.3539C8.26852 9.26001 8.22164 9.13267 8.22164 8.9999C8.22164 8.86712 8.26852 8.73979 8.35198 8.6459L11.1493 5.4999H0.666643C0.548769 5.4999 0.435723 5.44722 0.352373 5.35345C0.269024 5.25968 0.222198 5.13251 0.222198 4.9999Z" fill="#00C2FF"/>
    </symbol>
    <symbol viewBox="0 0 33 26" fill="none" xmlns="http://www.w3.org/2000/svg" id="boat">
<path d="M24.0466 0H23.474C22.329 0 21.7564 1.18182 21.7564 1.18182L20.6114 3.54533L13.1171 3.54545C12.7838 3.54545 12.4735 3.67545 12.2437 3.91182L11.7655 4.40357C11.7497 4.41669 11.7345 4.43075 11.7198 4.44576L5.68846 10.6364H1.19364C0.539433 10.6364 0 11.18 0 11.8654V13.0903C0.145493 14.3717 0.524399 15.5838 1.09418 16.6843C1.29379 16.7389 1.48072 16.8083 1.65768 16.8901C2.08755 17.089 2.42477 17.3491 2.66362 17.5334L2.68841 17.5526C2.94912 17.7535 3.10422 17.868 3.28526 17.9517C3.44462 18.0254 3.65987 18.0897 4.00633 18.0897C4.34893 18.0897 4.56135 18.0259 4.71879 17.9526C4.89833 17.8692 5.05228 17.755 5.31298 17.5535L5.33622 17.5356C5.57505 17.3507 5.91247 17.0897 6.3435 16.8902C6.81012 16.6743 7.34615 16.5454 8.00121 16.5454C8.65633 16.5454 9.19232 16.6743 9.65894 16.8901C10.0888 17.089 10.426 17.3491 10.6649 17.5334L10.6896 17.5526C10.9504 17.7535 11.1054 17.868 11.2864 17.9517C11.4458 18.0254 11.6611 18.0897 12.0076 18.0897C12.354 18.0897 12.5693 18.0254 12.7287 17.9517C12.9097 17.868 13.0647 17.7535 13.3255 17.5526L13.3503 17.5334C13.5891 17.3491 13.9263 17.089 14.3562 16.8901C14.8229 16.6743 15.3588 16.5454 16.0139 16.5454C16.669 16.5454 17.205 16.6743 17.6716 16.8901C18.1015 17.089 18.4387 17.3491 18.6775 17.5334L18.7023 17.5526C18.963 17.7535 19.1181 17.868 19.2991 17.9517C19.4585 18.0254 19.6738 18.0897 20.0203 18.0897C20.3667 18.0897 20.5819 18.0254 20.7413 17.9517C20.9224 17.868 21.0774 17.7535 21.3381 17.5526L21.3629 17.5334C21.6017 17.3491 21.939 17.089 22.3688 16.8901C22.8355 16.6743 23.3714 16.5454 24.0265 16.5454C24.6836 16.5454 25.221 16.6738 25.6888 16.8891C26.1215 17.0883 26.4602 17.3488 26.7005 17.5337L26.7238 17.5515C26.9858 17.753 27.1413 17.8677 27.3229 17.9517C27.4826 18.0254 27.6979 18.0897 28.0444 18.0897C28.3947 18.0897 28.6127 18.0251 28.774 17.9509C28.9565 17.8668 29.1129 17.752 29.3735 17.5515L29.3998 17.5313C29.6387 17.3475 29.9758 17.0881 30.4045 16.8899C30.8711 16.6743 31.4069 16.5454 32.0621 16.5454V16.48C32.0621 15.8648 31.5761 15.3636 30.9797 15.3636H29.772V11.8654C29.772 11.1918 29.244 10.6364 28.5783 10.6364H27.4818V4.81342C27.4818 4.78778 27.4748 4.76899 27.4663 4.7463L27.4605 4.73046L27.4818 4.72727C27.4359 4.07727 26.9072 3.54545 26.2637 3.54545H25.1915L25.1917 1.18182C25.1917 0.590897 24.741 0 24.0466 0ZM8.46374 9.45454L11.9181 5.90909H17.1715C17.8039 5.90909 18.3212 6.44091 18.3212 7.0909V8.2609C18.3212 8.9109 17.8039 9.44272 17.1715 9.45454H8.46374ZM21.7079 5.90909H24.0722C24.6891 5.90909 25.1802 6.42731 25.1802 7.05167V8.31196C25.1802 8.94801 24.6776 9.45454 24.0722 9.45454H21.7079C21.091 9.45454 20.5999 8.93631 20.5999 8.31196V7.05167C20.5999 6.41561 21.1025 5.90909 21.7079 5.90909Z" fill="#212121"/>
<path d="M32.0621 17.7273C31.062 17.7273 30.5611 18.1122 30.0596 18.4977C29.5567 18.8844 29.0531 19.2716 28.0444 19.2716C27.0442 19.2716 26.5434 18.8865 26.0419 18.501C25.539 18.1145 25.0352 17.7273 24.0265 17.7273C23.0249 17.7273 22.5242 18.1134 22.0233 18.4994C21.5226 18.8855 21.0217 19.2716 20.0203 19.2716C19.0187 19.2716 18.5178 18.8855 18.0171 18.4994C17.5162 18.1134 17.0155 17.7273 16.0139 17.7273C15.0123 17.7273 14.5115 18.1134 14.0107 18.4994C13.5099 18.8855 13.0091 19.2716 12.0076 19.2716C11.006 19.2716 10.5051 18.8855 10.0044 18.4994C9.50355 18.1134 9.0028 17.7273 8.00121 17.7273C6.9982 17.7273 6.49741 18.1145 5.99733 18.501C5.4987 18.8865 5.00076 19.2716 4.00633 19.2716C3.00475 19.2716 2.50396 18.8855 2.00317 18.4994C1.50237 18.1134 1.00159 17.7273 0 17.7273V26H32.0507L32.0621 17.7273Z" fill="#212121"/>
</symbol>
<symbol viewBox="0 0 27 23" fill="none" xmlns="http://www.w3.org/2000/svg" id="blanket">
<path d="M20.2117 0H9.35952C9.88351 0.314774 10.3598 0.696099 10.7751 1.13339L10.7776 1.13634C11.0592 1.43203 11.3114 1.75188 11.5308 2.09177L11.5683 2.15052C11.6154 2.22426 11.6615 2.30046 11.7055 2.37715C11.7169 2.39681 11.7272 2.41697 11.7383 2.43663C11.8216 2.58559 11.8993 2.7379 11.9712 2.89358C11.9805 2.91398 11.9909 2.93389 11.9999 2.95454C12.0284 3.01869 12.0543 3.08383 12.0806 3.14896C12.1006 3.19812 12.12 3.24729 12.1386 3.29645C12.161 3.35675 12.1826 3.41738 12.2033 3.47834C12.224 3.53905 12.2429 3.60124 12.2615 3.66171C12.2778 3.71505 12.2946 3.76814 12.3094 3.82197C12.3399 3.93324 12.3674 4.04565 12.3919 4.15921C12.3999 4.19706 12.4061 4.23541 12.4134 4.27351C12.4302 4.35978 12.4457 4.44557 12.4587 4.53406C12.4654 4.57904 12.4711 4.62402 12.4768 4.66925C12.4876 4.75577 12.4963 4.84278 12.5026 4.93029C12.506 4.97085 12.5099 5.01116 12.5125 5.05196C12.5205 5.17929 12.5257 5.3071 12.5257 5.43615V12.5418H26.144V5.63598C26.1421 4.14181 25.5165 2.70933 24.4044 1.65277C23.2923 0.596204 21.7845 0.00182145 20.2117 0Z" fill="black"/>
<path d="M0.00119019 12.542H0.00662362C0.00662362 12.5531 0.00300133 12.5636 0.00300133 12.5749V15.5246C0.00300133 15.6549 0.0575206 15.78 0.154565 15.8722C0.25161 15.9644 0.383231 16.0162 0.520473 16.0162C0.657715 16.0162 0.789336 15.9644 0.886381 15.8722C0.983426 15.78 1.03795 15.6549 1.03795 15.5246V12.5749C1.03795 12.5636 1.03536 12.5531 1.03432 12.542H3.11534C3.11534 12.5531 3.11171 12.5636 3.11171 12.5749V15.5246C3.11171 15.6549 3.16623 15.78 3.26328 15.8722C3.36032 15.9644 3.49194 16.0162 3.62919 16.0162C3.76643 16.0162 3.89805 15.9644 3.99509 15.8722C4.09214 15.78 4.14666 15.6549 4.14666 15.5246V12.5749C4.14666 12.5636 4.14407 12.5531 4.14303 12.542H6.22405C6.22405 12.5531 6.22043 12.5636 6.22043 12.5749V15.5246C6.22043 15.6549 6.27495 15.78 6.37199 15.8722C6.46903 15.9644 6.60066 16.0162 6.7379 16.0162C6.87514 16.0162 7.00676 15.9644 7.10381 15.8722C7.20085 15.78 7.25537 15.6549 7.25537 15.5246V12.5749C7.25537 12.5636 7.25278 12.5531 7.25175 12.542H9.33276C9.33276 12.5531 9.32914 12.5636 9.32914 12.5749V15.5246C9.32914 15.6549 9.38366 15.78 9.4807 15.8722C9.57775 15.9644 9.70937 16.0162 9.84661 16.0162C9.98385 16.0162 10.1155 15.9644 10.2125 15.8722C10.3096 15.78 10.3641 15.6549 10.3641 15.5246V12.5749C10.3641 12.5636 10.3615 12.5531 10.3605 12.542H11.4906V11.1321H0.00119019V12.542Z" fill="black"/>
<path d="M5.79569 0.000732422C4.25678 0.0109057 2.78438 0.598101 1.69894 1.63452C0.613508 2.67094 0.00289641 4.0727 0 5.53471V7.56184H11.4912V5.4359C11.4881 3.99954 10.8878 2.62251 9.82109 1.60457C8.75438 0.586633 7.3076 0.0101931 5.79569 0.000732422Z" fill="black"/>
<path d="M0.00119019 8.54492H11.4914V10.1485H0.00119019V8.54492Z" fill="black"/>
<path d="M12.5262 18.6937H14.4321C14.4253 18.7254 14.4218 18.7577 14.4217 18.7901V21.7397C14.4217 21.8701 14.4762 21.9951 14.5733 22.0873C14.6703 22.1795 14.8019 22.2313 14.9392 22.2313C15.0764 22.2313 15.208 22.1795 15.3051 22.0873C15.4021 21.9951 15.4567 21.8701 15.4567 21.7397V18.7901C15.4565 18.7577 15.4531 18.7254 15.4463 18.6937H17.3625C17.3557 18.7254 17.3523 18.7577 17.3522 18.7901V21.7397C17.3522 21.8701 17.4067 21.9951 17.5037 22.0873C17.6008 22.1795 17.7324 22.2313 17.8696 22.2313C18.0069 22.2313 18.1385 22.1795 18.2355 22.0873C18.3326 21.9951 18.3871 21.8701 18.3871 21.7397V18.7901C18.387 18.7577 18.3835 18.7254 18.3767 18.6937H20.2929C20.2862 18.7254 20.2827 18.7577 20.2826 18.7901V21.7397C20.2826 21.8701 20.3371 21.9951 20.4342 22.0873C20.5312 22.1795 20.6628 22.2313 20.8001 22.2313C20.9373 22.2313 21.0689 22.1795 21.166 22.0873C21.263 21.9951 21.3175 21.8701 21.3175 21.7397V18.7901C21.3174 18.7577 21.314 18.7254 21.3072 18.6937H23.2231C23.2164 18.7254 23.2129 18.7577 23.2128 18.7901V21.7397C23.2128 21.8701 23.2673 21.9951 23.3643 22.0873C23.4614 22.1795 23.593 22.2313 23.7303 22.2313C23.8675 22.2313 23.9991 22.1795 24.0962 22.0873C24.1932 21.9951 24.2477 21.8701 24.2477 21.7397V18.7901C24.2476 18.7577 24.2441 18.7254 24.2374 18.6937H26.1435V16.1111H12.5262V18.6937Z" fill="black"/>
<path d="M12.5262 13.5242H26.1445V15.1278H12.5262V13.5242Z" fill="black"/>
<symbol fill="#000000" version="1.1" id="staff" xmlns="http://www.w3.org/2000/svg" xmlns:xlink="http://www.w3.org/1999/xlink" xml:space="preserve" viewBox="0 0 512.001 512.001">
    <g>
      <g>
        <path d="M294.137,62.109c-10.469-6.181-17.764-12.212-37.992-12.212c-19.766,0-27.334,5.925-37.429,11.684
			c-1.119,3.653-1.726,7.53-1.726,11.55c0,21.737,17.622,39.36,39.361,39.36s39.361-17.623,39.361-39.361
			C295.712,69.304,295.155,65.607,294.137,62.109z"></path>
      </g>
    </g>
    <g>
      <g>
        <path d="M159.675,299.462l-0.05,9.822c-0.052,10.488,8.407,19.034,18.897,19.086c0.032,0,0.066,0,0.098,0
			c10.444,0,18.937-8.44,18.99-18.897l0.05-10.012H159.675z"></path>
      </g>
    </g>
    <g>
      <g>
        <path d="M314.272,299.463l-0.009,9.899c-0.01,10.488,8.485,18.999,18.975,19.009c0.007,0,0.012,0,0.018,0
			c10.482,0,18.983-8.492,18.992-18.975l0.009-9.934H314.272z"></path>
      </g>
    </g>
    <g>
      <g>
        <path d="M352.376,169.756c-0.124-24.657-20.287-44.718-44.944-44.718h-21.214c-4.165,10.881-18.012,47.055-22.381,58.473
			l5.292-24.931c0.372-1.751,0.102-3.577-0.761-5.145l-7.268-13.219l6.461-11.751c0.448-0.815,0.433-1.806-0.04-2.606
			s-1.334-1.292-2.264-1.292h-17.734c-0.929,0-1.791,0.491-2.264,1.292c-0.473,0.8-0.489,1.792-0.041,2.606l6.461,11.751
			l-7.295,13.268c-0.846,1.539-1.122,3.326-0.78,5.049l4.627,24.978c-4.237-10.867-17.894-47.562-22.148-58.473H205.27
			c-24.66,0-44.821,20.062-44.943,44.719l-0.573,114.086h37.985l0.572-113.896c0.01-2.079,1.7-3.756,3.777-3.75
			c2.078,0.006,3.758,1.692,3.758,3.768l0.009,319.245c0,12.587,10.204,22.791,22.791,22.791s22.791-10.204,22.791-22.791V307.044
			h9.84V489.21c0,12.587,10.204,22.791,22.791,22.791s22.791-10.204,22.791-22.791c0-301.393-0.404-128.817-0.414-319.286
			c0-2.191,1.773-3.969,3.964-3.974c2.191-0.006,3.973,1.764,3.984,3.956l-0.105,113.937h37.984l0.105-113.972
			C352.376,169.832,352.376,169.795,352.376,169.756z M256.145,261.747c-3.161,0-5.724-2.563-5.724-5.724
			c0-3.161,2.563-5.724,5.724-5.724c3.161,0,5.724,2.563,5.724,5.724C261.869,259.184,259.306,261.747,256.145,261.747z
			 M256.145,234.166c-3.161,0-5.724-2.563-5.724-5.724c0-3.161,2.562-5.724,5.724-5.724c3.161,0,5.724,2.563,5.724,5.724
			C261.869,231.603,259.306,234.166,256.145,234.166z M256.145,206.586c-3.154,0-5.724-2.558-5.724-5.724
			c0-3.129,2.543-5.724,5.724-5.724c3.191,0,5.724,2.615,5.724,5.724C261.869,204.108,259.156,206.586,256.145,206.586z"></path>
      </g>
    </g>
    <g>
      <g>
        <path d="M285.756,0h-58.733c-2.615,0-4.734,2.12-4.734,4.734v39.231c8.145-4.647,20.286-7.598,33.856-7.598
			c13.841,0,26.202,3.068,34.346,7.877V4.734C290.49,2.119,288.37,0,285.756,0z"></path>
      </g>
    </g>
  </symbol>

</svg>